<svg xmlns="http://www.w3.org/2000/svg" width="20" height="20" fill="none" viewBox="0 0 20 20">
  <path fill="#000" d="M10 19.991c-5.514 0-10-4.484-10-9.995C0 4.484 4.486 0 10 0s10 4.484 10 9.996c0 5.512-4.486 9.995-10 9.995Zm0-18.67c-4.785 0-8.678 3.891-8.678 8.675 0 4.783 3.893 8.674 8.678 8.674 4.785 0 8.678-3.892 8.678-8.675 0-4.783-3.893-8.674-8.678-8.674Z"/>
  <path fill="#000" d="M10 11.924a.662.662 0 0 1-.558-.308l-2.659-4.19A.661.661 0 0 1 7.9 6.718l1.44 2.27V4.64a.661.661 0 0 1 1.322 0v6.622a.66.66 0 0 1-.661.66Zm9.178-1.268h-1.145a.661.661 0 0 1 0-1.321h1.145a.661.661 0 0 1 0 1.321Zm-17.33 0H.704a.661.661 0 0 1 0-1.321h1.144a.661.661 0 0 1 0 1.321ZM9.937 20a.661.661 0 0 1-.661-.66v-1.143a.661.661 0 0 1 1.322 0v1.142a.66.66 0 0 1-.661.66ZM10 2.767a.661.661 0 0 1-.661-.66V.96a.661.661 0 0 1 1.322 0v1.145a.661.661 0 0 1-.661.661Z"/>
</svg>
