<svg xmlns="http://www.w3.org/2000/svg" width="30" height="30" fill="none" viewBox="0 0 22 22">
  <path fill="#000" fill-rule="evenodd" d="M2.119 0C.979 0 .048.936.048 2.08v5.702c0 1.143.93 2.09 2.071 2.09h5.572a2.097 2.097 0 0 0 2.081-2.09V2.08A2.09 2.09 0 0 0 7.692 0H2.118Zm0 .545h5.572c.844 0 1.538.69 1.538 1.535v5.702a1.55 1.55 0 0 1-1.538 1.544H2.12A1.541 1.541 0 0 1 .591 7.782V2.08c0-.847.684-1.535 1.528-1.535ZM13.476 0a2.09 2.09 0 0 0-2.081 2.08v5.702c0 1.145.94 2.09 2.08 2.09h5.573c1.14 0 2.071-.947 2.071-2.09V2.08A2.081 2.081 0 0 0 19.048 0h-5.572Zm0 .545h5.572c.844 0 1.528.688 1.528 1.535v5.702c0 .847-.686 1.544-1.528 1.544h-5.572a1.55 1.55 0 0 1-1.538-1.544V2.08c0-.845.694-1.535 1.538-1.535ZM2.08 11.249c-1.14 0-2.08.944-2.08 2.09v5.7a2.09 2.09 0 0 0 2.08 2.08h5.573c1.14 0 2.072-.936 2.072-2.08v-5.7c0-1.145-.931-2.09-2.072-2.09H2.081Zm0 .545h5.573c.842 0 1.528.697 1.528 1.544v5.702c0 .847-.684 1.534-1.528 1.534H2.081A1.54 1.54 0 0 1 .543 19.04v-5.702a1.55 1.55 0 0 1 1.538-1.544Zm11.319-.545c-1.14 0-2.08.944-2.08 2.09v5.7a2.09 2.09 0 0 0 2.08 2.08h5.572c1.14 0 2.072-.936 2.072-2.08v-5.7c0-1.145-.93-2.09-2.072-2.09H13.4Zm0 .545h5.572c.842 0 1.528.697 1.528 1.544v5.702c0 .847-.684 1.534-1.528 1.534H13.4a1.54 1.54 0 0 1-1.538-1.534v-5.702a1.55 1.55 0 0 1 1.538-1.544Z" clip-rule="evenodd"/>
</svg>
