<svg xmlns="http://www.w3.org/2000/svg" width="39" height="44" fill="none" viewBox="0 0 39 44">
  <path fill="#0078D4" d="M19.482 6.34c-9.724 0-17.636 7.911-17.636 17.636a17.57 17.57 0 0 0 4.792 12.068l-2.797 4.114a2.159 2.159 0 1 0 3.571 2.427l2.562-3.767a17.53 17.53 0 0 0 9.507 2.793c3.448 0 6.664-.998 9.383-2.714l2.509 3.688a2.157 2.157 0 0 0 3 .572 2.158 2.158 0 0 0 .572-3l-2.725-4.006a17.563 17.563 0 0 0 4.896-12.175c.002-9.725-7.91-17.636-17.634-17.636ZM5.446 23.976c0-7.74 6.297-14.037 14.037-14.037 7.74 0 14.036 6.297 14.036 14.037 0 7.74-6.297 14.036-14.036 14.036-7.74 0-14.037-6.297-14.037-14.036Z"/>
  <path fill="#0078D4" d="M28.52 24.362a1.796 1.796 0 0 0-2.211 1.256c-1.025 3.72-4.317 5.039-6.826 5.039-2.509 0-5.801-1.32-6.826-5.039a1.8 1.8 0 0 0-3.47.956c1.286 4.667 5.327 7.682 10.296 7.682 4.97 0 9.01-3.016 10.295-7.682a1.8 1.8 0 0 0-1.258-2.212ZM2.99 12.728l10.242-9.271a.53.53 0 0 0 .038-.751l-.89-.984c-1.77-1.955-5.038-2.368-6.994-.6l-3.94 3.566c-1.956 1.77-1.868 5.063-.098 7.018l.89.984a.532.532 0 0 0 .752.038Zm32.442 0c.217.197.554.18.751-.037l.89-.984c1.77-1.956 1.858-5.249-.097-7.019l-3.94-3.565c-1.956-1.769-5.224-1.357-6.994.599l-.89.984a.53.53 0 0 0 .038.75l10.242 9.272Zm-18.207 4.53a1.92 1.92 0 1 1-3.839 0 1.92 1.92 0 0 1 3.84 0Zm7.811 0a1.92 1.92 0 1 1-3.839 0 1.92 1.92 0 0 1 3.84 0Z"/>
</svg>
