<svg xmlns="http://www.w3.org/2000/svg" width="175" height="27" fill="none" viewBox="0 0 175 27">
  <path fill="#0078D4" d="M16.74 11.468v5.337c0 1.385.622 1.975 1.834 1.975v.943h-7.699v-.943c1.41 0 1.868-.53 1.868-2.064V12.5c0-1.945-.655-2.889-1.998-2.889-1.18 0-2.49.53-4.62 1.857v5.425c0 1.327.656 1.887 1.933 1.887h.262v.943H.066v-.943h.196c1.376 0 1.867-.53 1.867-2.064v-5.749c0-.648-.327-.914-1.408-1.267L0 9.464v-.708l5.536-1.71h.59v3.39C9.63 8.197 11.53 7.37 13.2 7.37c1.867 0 3.145 1.12 3.407 3.067 2.326-1.533 5.274-3.067 7.305-3.067 2.391 0 3.44 1.534 3.44 5.071v4.6c0 1.444.556 1.739 1.834 1.739v.943h-7.698v-.943c1.343-.088 1.867-.914 1.867-3.332v-2.564c0-2.359-.72-3.273-2.03-3.273-1.016 0-2.36.501-4.587 1.857Zm20.636 7.96-4.422-8.107c-1.146-2.123-1.703-2.683-3.112-2.683v-.943h8.353v.943c-1.703 0-1.965.59-1.343 1.77l2.72 5.07 2.489-4.54c.688-1.268.262-2.27-1.704-2.3v-.943h6.093v.943c-1.474.295-1.9.649-2.817 2.33L36.295 24.41c-.819 1.474-1.834 2.182-2.98 2.182-1.18 0-2.064-.708-2.064-1.68 0-.473.196-.974.491-1.24 1.507-1.355 3.243.473 4.98-2.947l.654-1.297ZM48.58 10.85C48.58 5.012 53.82.825 61.126.825c6.846 0 11.694 3.863 11.694 9.376 0 5.247-4.488 9.935-12.317 9.935-7.534 0-11.923-4.334-11.923-9.287Zm4.88-1.415c0 5.631 3.178 9.434 7.797 9.434 4.553 0 6.682-3.537 6.682-7.606 0-4.747-2.62-9.169-7.6-9.169-4.16 0-6.879 2.89-6.879 7.341Zm30.89 9.346v.943h-9.106v-.943h.23c1.343 0 1.834-.53 1.834-2.064v-4.805c0-1.327-.197-1.622-1.18-1.976l-.884-.324v-.737l5.373-1.828h.687v3.302h.066c1.212-2.123 1.736-2.978 2.85-2.978.23 0 .491.03.655.089l2.588.855c-.393 1.238-.917 2.3-1.573 3.125-1.015-.354-2.227-.737-2.653-.737-.655 0-1.212.413-1.933 1.327v4.776c0 1.415.492 1.975 2.195 1.975h.852Zm15.135 1.268V17.69c-2.031 1.622-3.669 2.359-5.274 2.359-3.08 0-5.307-2.33-5.307-5.572 0-3.302 2.26-7.106 7.633-7.106 1.048 0 1.965.118 2.948.384V3.98c0-1.09-.557-1.474-2.195-1.798v-.708L102.368 0h1.113v15.832c0 1.74.262 2.181 1.311 2.181.294 0 .655-.059.982-.147v.914l-5.437 1.268h-.852Zm0-3.686V9.817c-1.212-.972-1.966-1.267-3.145-1.267-2.162 0-3.472 1.621-3.472 4.363 0 2.948 1.474 4.924 3.669 4.924.917 0 2.162-.62 2.948-1.475Zm20.408-.619.753.56c-1.834 2.33-4.488 3.745-7.01 3.745-3.57 0-5.995-2.477-5.995-6.044 0-3.892 2.916-6.634 7.011-6.634 1.736 0 3.112.502 4.127 1.416 1.933 1.739 1.016 3.39 2.162 3.92v.856h-9.074c.262 2.447 2.097 4.304 4.029 4.304 1.212 0 2.392-.62 3.997-2.123Zm-8.124-3.331h4.652c-.033-2.27-.918-3.656-2.326-3.656-1.343 0-2.555 1.563-2.326 3.656Zm20.015 6.368v.943h-9.107v-.943h.23c1.343 0 1.834-.53 1.834-2.064v-4.805c0-1.327-.197-1.622-1.179-1.976l-.885-.324v-.737l5.372-1.828h.688v3.302h.066c1.212-2.123 1.736-2.978 2.85-2.978.229 0 .491.03.655.089l2.588.855c-.393 1.238-.917 2.3-1.573 3.125-1.015-.354-2.227-.737-2.653-.737-.655 0-1.212.413-1.933 1.327v4.776c0 1.415.492 1.975 2.195 1.975h.852Z"/>
  <path fill="#6F6969" d="M171.228 21.783h-1.193c0-4.082-1.816-7.997-5.048-10.884-3.232-2.887-7.616-4.508-12.187-4.508-4.57 0-8.954 1.621-12.186 4.508-3.232 2.887-5.048 6.802-5.048 10.884h-1.193c0-4.365 1.941-8.551 5.397-11.638 3.456-3.086 8.143-4.82 13.03-4.82 4.888 0 9.575 1.734 13.031 4.82 3.456 3.087 5.397 7.273 5.397 11.638Z"/>
  <path fill="#6F6969" d="M152.801 6.396a3.893 3.893 0 0 1-1.99-.539 3.303 3.303 0 0 1-1.318-1.435 2.883 2.883 0 0 1-.204-1.848c.138-.62.479-1.19.98-1.637a3.725 3.725 0 0 1 1.833-.876 3.981 3.981 0 0 1 2.069.182 3.53 3.53 0 0 1 1.607 1.178c.393.526.603 1.144.603 1.777 0 .848-.377 1.662-1.049 2.261-.671.6-1.582.937-2.531.937Zm0-5.33a2.59 2.59 0 0 0-1.327.36 2.209 2.209 0 0 0-.879.956c-.18.39-.228.818-.136 1.232.092.413.32.793.654 1.091.333.299.759.502 1.222.584.463.082.943.04 1.379-.121a2.348 2.348 0 0 0 1.071-.786 1.97 1.97 0 0 0 .403-1.184 1.935 1.935 0 0 0-.173-.824 2.142 2.142 0 0 0-.516-.7 2.4 2.4 0 0 0-.778-.47 2.636 2.636 0 0 0-.92-.165v.027Zm12.693 14.876a.652.652 0 0 1-.316-.078.56.56 0 0 1-.222-.215c0-.054-3.025-5.256-9.965-5.549a.662.662 0 0 1-.236-.043.606.606 0 0 1-.197-.122.54.54 0 0 1-.128-.182.484.484 0 0 1-.036-.212.508.508 0 0 1 .185-.36.636.636 0 0 1 .412-.147c2.265.1 4.464.716 6.386 1.791 1.923 1.075 3.504 2.573 4.594 4.35a.482.482 0 0 1 .034.405.558.558 0 0 1-.297.309.651.651 0 0 1-.214.053Zm8.909 6.375h-43.468a.636.636 0 0 1-.422-.157.505.505 0 0 1-.174-.377c0-.14.062-.276.174-.376a.635.635 0 0 1 .422-.157h43.468c.159 0 .31.057.422.157.112.1.175.235.175.377a.506.506 0 0 1-.175.376.634.634 0 0 1-.422.157Zm-6.385 3.933h-30.697a.633.633 0 0 1-.422-.156.506.506 0 0 1-.175-.377c0-.141.063-.277.175-.377a.633.633 0 0 1 .422-.156h30.697c.158 0 .31.056.422.156.112.1.175.236.175.377a.506.506 0 0 1-.175.377.635.635 0 0 1-.422.156Z"/>
  <path fill="#6F6969" d="M137.321 26.25a.655.655 0 0 1-.424-.155l-4.422-3.922a.506.506 0 0 1-.173-.376c0-.141.062-.276.173-.376a.618.618 0 0 1 .424-.158.652.652 0 0 1 .423.158l4.428 3.918a.53.53 0 0 1 .131.173.489.489 0 0 1-.131.583.597.597 0 0 1-.197.116.66.66 0 0 1-.232.039Zm30.697 0a.66.66 0 0 1-.229-.04.608.608 0 0 1-.195-.115.527.527 0 0 1-.13-.173.474.474 0 0 1 0-.41.527.527 0 0 1 .13-.174l4.416-3.933a.618.618 0 0 1 .424-.158.652.652 0 0 1 .424.158c.111.1.173.235.173.376 0 .14-.062.276-.173.376l-4.422 3.933a.636.636 0 0 1-.418.16Zm-1.289-8.475c.356 0 .644-.257.644-.575 0-.318-.288-.576-.644-.576-.356 0-.645.258-.645.576 0 .318.289.575.645.575Z"/>
</svg>
