<?xml version="1.0" standalone="no"?>
<!DOCTYPE svg PUBLIC "-//W3C//DTD SVG 20010904//EN"
 "http://www.w3.org/TR/2001/REC-SVG-20010904/DTD/svg10.dtd">
<svg version="1.0" xmlns="http://www.w3.org/2000/svg"
 width="580.000000pt" height="117.000000pt" viewBox="0 0 580.000000 117.000000"
 preserveAspectRatio="xMidYMid meet">

<g transform="translate(0.000000,117.000000) scale(0.100000,-0.100000)"
fill="#000000" stroke="none">
<path d="M3311 976 c-41 -13 -76 -27 -78 -32 -1 -5 12 -16 30 -24 31 -15 32
-16 35 -91 l3 -76 -68 4 c-98 7 -149 -9 -204 -67 -82 -84 -89 -208 -16 -278
65 -62 118 -66 213 -17 37 19 68 35 70 35 2 0 4 -16 4 -35 0 -19 5 -35 10 -35
6 0 49 10 95 21 81 21 111 39 62 39 -46 0 -47 8 -47 302 0 319 12 290 -109
254z m-36 -270 c24 -16 25 -20 25 -126 l0 -110 -32 -20 c-96 -59 -188 8 -188
135 0 98 46 149 127 141 24 -2 54 -11 68 -20z"/>
<path d="M4953 985 c-30 -13 -63 -59 -63 -87 0 -7 7 -26 15 -42 9 -16 14 -30
13 -31 -2 -1 -34 -10 -73 -19 -142 -35 -273 -126 -347 -240 -40 -62 -78 -168
-78 -217 0 -27 -1 -28 -62 -31 -38 -2 -63 -8 -66 -15 -2 -9 8 -13 32 -13 29 0
47 -11 108 -65 l73 -65 491 0 491 0 74 65 c58 52 80 65 106 65 23 0 33 5 33
15 0 12 -13 15 -60 15 -60 0 -60 0 -60 29 0 49 -38 155 -78 217 -74 114 -205
205 -347 240 -39 9 -71 18 -73 19 -1 1 4 15 13 31 8 16 15 35 15 42 0 29 -33
74 -65 88 -42 17 -51 17 -92 -1z m101 -36 c55 -43 21 -119 -54 -119 -49 0 -80
27 -80 69 0 36 40 71 80 71 15 0 39 -9 54 -21z m71 -164 c227 -48 394 -214
430 -427 l6 -38 -561 0 -561 0 6 38 c51 300 361 494 680 427z m453 -503 c-1
-4 -24 -27 -49 -50 l-46 -42 -489 0 -489 0 -47 46 c-27 25 -48 47 -48 50 0 2
264 4 586 4 322 0 584 -4 582 -8z"/>
<path d="M5060 698 c0 -9 22 -18 63 -25 92 -16 170 -57 232 -125 60 -65 83
-63 33 3 -59 76 -171 137 -280 153 -37 6 -48 4 -48 -6z"/>
<path d="M5430 450 c0 -5 7 -10 15 -10 8 0 15 5 15 10 0 6 -7 10 -15 10 -8 0
-15 -4 -15 -10z"/>
<path d="M1935 955 c-206 -53 -315 -248 -231 -418 50 -102 155 -164 299 -174
251 -18 428 110 430 309 2 121 -74 223 -200 272 -65 25 -219 30 -298 11z m216
-45 c51 -26 93 -79 119 -147 32 -86 25 -203 -16 -270 -99 -160 -343 -119 -413
70 -31 85 -29 187 5 255 14 29 40 62 57 74 68 49 172 56 248 18z"/>
<path d="M198 743 c-43 -14 -78 -29 -78 -34 0 -5 12 -14 27 -20 15 -6 31 -16
35 -22 4 -7 8 -59 8 -117 0 -113 -12 -150 -51 -150 -10 0 -19 -7 -19 -15 0
-13 21 -15 131 -15 100 0 130 3 127 13 -3 6 -13 14 -24 16 -40 7 -44 20 -44
132 l0 109 43 21 c55 29 104 40 132 29 32 -12 45 -59 45 -159 0 -89 -15 -131
-46 -131 -8 0 -14 -7 -14 -15 0 -12 19 -15 115 -15 91 0 115 3 115 14 0 7 -9
16 -20 19 -30 8 -41 51 -38 146 l3 86 55 27 c82 39 104 42 135 15 23 -20 27
-32 32 -102 6 -95 -8 -161 -37 -170 -11 -4 -20 -13 -20 -21 0 -11 22 -14 115
-14 96 0 115 3 115 15 0 8 -9 15 -20 15 -32 0 -40 32 -40 155 0 126 -13 175
-51 195 -36 20 -112 5 -197 -40 -43 -22 -80 -40 -84 -40 -3 0 -11 14 -18 30
-7 17 -25 37 -41 45 -48 25 -92 18 -186 -30 -48 -25 -88 -45 -90 -45 -2 0 -3
23 -3 50 0 59 0 59 -112 23z"/>
<path d="M2603 742 c-40 -15 -73 -31 -73 -37 0 -5 14 -18 30 -27 l30 -17 0
-119 c0 -122 -6 -142 -42 -142 -10 0 -18 -7 -18 -15 0 -13 22 -15 135 -15 113
0 135 2 135 15 0 9 -10 15 -26 15 -58 0 -64 11 -64 125 0 100 1 105 25 121 23
15 66 14 109 -2 15 -6 42 31 51 68 6 22 2 26 -33 36 -67 20 -80 16 -110 -33
-15 -24 -30 -45 -34 -45 -5 0 -8 23 -8 50 0 60 -3 60 -107 22z"/>
<path d="M4118 742 c-43 -14 -78 -31 -78 -37 0 -5 15 -17 33 -25 l32 -15 3
-113 c3 -120 -5 -149 -40 -154 -12 -2 -23 -9 -26 -15 -3 -10 29 -13 137 -13
119 0 141 2 141 15 0 10 -11 15 -35 15 -53 0 -66 28 -63 135 3 83 5 89 31 108
25 19 31 20 73 9 51 -14 62 -7 83 51 9 25 8 29 -17 39 -15 5 -42 11 -61 12
-30 1 -38 -5 -64 -41 -15 -24 -33 -43 -38 -43 -5 0 -9 23 -9 50 0 34 -4 50
-12 49 -7 0 -48 -13 -90 -27z"/>
<path d="M3685 741 c-181 -82 -154 -351 37 -377 63 -9 140 18 195 69 53 49 47
67 -9 27 -74 -54 -164 -36 -203 40 -8 16 -15 38 -15 50 0 19 6 20 140 20 77 0
140 3 140 8 0 16 -39 114 -52 129 -41 50 -161 67 -233 34z m135 -53 c11 -18
20 -45 20 -60 l0 -28 -81 0 -82 0 6 36 c14 83 98 115 137 52z"/>
<path d="M1070 740 c0 -5 11 -12 24 -16 14 -3 31 -13 39 -22 20 -22 177 -310
177 -323 0 -6 -10 -29 -22 -51 -24 -42 -62 -68 -100 -68 -65 0 -90 -69 -36
-99 24 -14 30 -14 60 0 28 14 51 49 152 235 159 290 173 313 202 320 13 3 24
12 24 20 0 11 -20 14 -90 14 -92 0 -113 -10 -60 -29 23 -8 30 -16 30 -36 0
-28 -76 -175 -90 -175 -12 0 -100 163 -100 184 0 9 11 22 25 28 14 6 25 15 25
20 0 4 -58 8 -130 8 -78 0 -130 -4 -130 -10z"/>
</g>
</svg>
