<svg xmlns="http://www.w3.org/2000/svg" width="19" height="22" fill="none" viewBox="0 0 19 22">
  <path fill="#0078D4" d="M16.04 15.48v3.2a2.564 2.564 0 0 1-2.56 2.56H3.24a2.564 2.564 0 0 1-2.56-2.56V3.32A2.564 2.564 0 0 1 3.24.76h10.24a2.564 2.564 0 0 1 2.56 2.56.64.64 0 1 1-1.28 0 1.28 1.28 0 0 0-1.28-1.28H3.24a1.28 1.28 0 0 0-1.28 1.28v15.36c0 .707.573 1.28 1.28 1.28h10.24a1.28 1.28 0 0 0 1.28-1.28v-3.2a.64.64 0 1 1 1.28 0Zm1.92-6.134-6.589 6.585a.629.629 0 0 1-.45.19H8.9a.64.64 0 0 1-.64-.64v-2.02c0-.17.067-.333.19-.451l6.588-6.589c.483-.483 1.324-.483 1.81 0l1.111 1.114c.5.5.5 1.312 0 1.811Zm-.905-.906L15.94 7.327l-6.4 6.4v1.113h1.114l6.4-6.4Z"/>
</svg>
