<svg xmlns="http://www.w3.org/2000/svg" width="25" height="30" fill="none" viewBox="0 0 25 30">
  <path fill="#fff" d="M20.244 12.164a.516.516 0 0 1 0-1.031.516.516 0 0 1 0 1.031Zm-4.347 13.413h5.493a1.795 1.795 0 1 0 0-3.593l-.01-8.173a4.308 4.308 0 0 0 3.17-4.156c.047-3.376-3.893-5.492-6.674-3.59v-.001a9.167 9.167 0 0 0-3.783-1.823V2.943a2.043 2.043 0 0 0-4.084 0V4.24a9.328 9.328 0 0 0-7.288 9.102v8.642a1.796 1.796 0 0 0-.01 3.592h5.494c.547 4.663 7.146 4.66 7.691 0Zm-.691 0c-.495 3.748-5.817 3.746-6.31 0h6.31Zm-12.494-.688a1.109 1.109 0 0 1 0-2.217H21.39a1.109 1.109 0 0 1 0 2.217H2.712Zm.697-11.546c-.095-5.321 5.086-9.58 10.277-8.484a8.471 8.471 0 0 1 3.635 1.642c-3.017 2.797-.723 7.856 3.372 7.44v8.044H3.41v-8.642Zm13.217-3.74a3.618 3.618 0 0 1 7.237.052c-.2 4.839-7.107 4.783-7.237-.053Zm-4.627-5.59a9.283 9.283 0 0 0-1.303.1v-1.17a1.355 1.355 0 0 1 2.71 0v1.17a9.25 9.25 0 0 0-1.407-.1Zm8.589 6.165v-2.51a.344.344 0 0 0-.688 0v2.51a.344.344 0 0 0 .688 0Z"/>
</svg>
