<svg xmlns="http://www.w3.org/2000/svg" width="144" height="32" fill="none" viewBox="0 0 144 32">
  <path fill="#FF0303" d="M29.776 9.431h1.758c.484 0 .97.005 1.458.015.493.01.964.03 1.413.058.454.025.872.059 1.253.103.38.044.7.1.96.168.38.113.734.288 1.061.528.332.239.64.52.923.842.112.132.237.31.374.535.141.22.273.473.395.761.127.288.232.601.315.938.083.337.124.686.124 1.047 0 .855-.16 1.626-.483 2.315a6.233 6.233 0 0 1-1.384 1.89.983.983 0 0 0-.132.087l-.176.147-.183.139-.117.095c-.112.093-.252.18-.418.264-.16.083-.339.159-.534.227a9.138 9.138 0 0 1-1.238.337 7.304 7.304 0 0 1-.579.088 3.62 3.62 0 0 1-.468.036c-.19 0-.386-.01-.586-.029a9.632 9.632 0 0 0-.696-.022h-3.274c-.156 0-.234-.051-.234-.154 0-.058.05-.105.153-.139.103-.039.228-.068.374-.088a6.01 6.01 0 0 1 .469-.058c.166-.02.315-.042.447-.066a.594.594 0 0 0 .22-.08.34.34 0 0 0 .11-.125c.024-.103.038-.184.043-.242.005-.064.007-.134.007-.213V9.93c-.014-.034-.078-.066-.19-.095a3.709 3.709 0 0 0-.396-.08 22.687 22.687 0 0 0-.49-.074 18.116 18.116 0 0 1-.484-.073c-.078-.01-.117-.034-.117-.073 0-.01.027-.034.08-.074a.27.27 0 0 1 .081-.022c.04-.004.093-.007.161-.007Zm3.04.535v4.116c0 .298-.01.586-.03.864a38.75 38.75 0 0 1-.05.806c-.015.264-.032.527-.052.791-.015.259-.022.525-.022.798 0 .615.034 1.09.103 1.421.073.327.173.562.3.703a.41.41 0 0 0 .249.154c.112.02.212.03.3.03a3.93 3.93 0 0 0 2.03-.55c.292-.17.553-.371.783-.6.234-.23.432-.476.593-.74a6.887 6.887 0 0 0 .754-1.634 5.468 5.468 0 0 0 .25-1.574c0-.274-.023-.535-.066-.784a6.05 6.05 0 0 0-.147-.688 4.593 4.593 0 0 0-.19-.557 3.584 3.584 0 0 0-.184-.38 5.296 5.296 0 0 0-.307-.477 3.865 3.865 0 0 0-.513-.586 4.466 4.466 0 0 0-.754-.593A4.776 4.776 0 0 0 34.8 9.98a3.625 3.625 0 0 0-.762-.19 6.283 6.283 0 0 0-.835-.051c-.03 0-.068.002-.117.007a.516.516 0 0 0-.125.03.249.249 0 0 0-.102.073.158.158 0 0 0-.044.117Zm10.7 6.372 1.253-.051c.195-.015.344-.061.447-.14a.77.77 0 0 0 .227-.292c.054-.118.093-.245.117-.381.03-.137.07-.271.125-.403.014-.059.039-.088.073-.088.068 0 .102.017.102.051v.293c0 .196-.01.408-.029.637a9.04 9.04 0 0 0-.022.579c0 .156.012.322.037.498.029.176.044.357.044.542a2.33 2.33 0 0 1-.03.286.641.641 0 0 1-.044.154c-.014.043-.036.065-.066.065-.053 0-.087-.024-.102-.073a3.867 3.867 0 0 0-.161-.608 11.1 11.1 0 0 0-.132-.373.447.447 0 0 0-.256-.205 1.798 1.798 0 0 0-.432-.118 3.137 3.137 0 0 0-.491-.05 7.56 7.56 0 0 0-.44-.016h-.22c-.078 0-.126.018-.146.052-.02.03-.03.078-.03.146v2.571c0 .146.047.24.14.278h2.527a.548.548 0 0 0 .212-.036.336.336 0 0 0 .183-.125 1.685 1.685 0 0 0 .213-.344 5.65 5.65 0 0 0 .132-.249l.131-.256c.044-.078.076-.13.096-.154a.152.152 0 0 1 .146-.088c.044 0 .076.017.095.051v1.091a.514.514 0 0 1-.014.125 3.622 3.622 0 0 1-.022.132c-.02.068-.044.115-.074.139a.575.575 0 0 1-.168.059c-.493 0-.962-.003-1.406-.008l-1.34-.014c-.455 0-.933-.003-1.436-.008A172.05 172.05 0 0 0 41.07 20c-.083 0-.124-.041-.124-.125 0-.053.027-.095.08-.124a.568.568 0 0 1 .147-.059 1.9 1.9 0 0 0 .139-.007c.068-.005.142-.007.22-.007l.227-.015a2.9 2.9 0 0 1 .19-.007c.117 0 .176-.093.176-.279v-5.405c0-.083-.01-.185-.03-.307a.787.787 0 0 0-.094-.308l-.052-.037-1.025-.102c-.093 0-.14-.047-.14-.14a.33.33 0 0 1 .015-.087c.01-.04.042-.059.096-.059h1.2c.47 0 .93-.002 1.385-.007.454-.005.872-.008 1.252-.008h1.04c.079 0 .16.003.242.008.088 0 .171.002.25.007.077 0 .148.003.212.008h.146a.112.112 0 0 1 .08.05c.02.03.032.067.037.11a.51.51 0 0 1 .015.125c.005.04.007.07.007.095v1.194c0 .044-.017.066-.051.066-.054 0-.095-.034-.125-.103a1.593 1.593 0 0 0-.117-.256 2.485 2.485 0 0 0-.16-.322 4.433 4.433 0 0 1-.14-.25.433.433 0 0 0-.205-.19 1.09 1.09 0 0 0-.3-.11 2.672 2.672 0 0 0-.345-.065 3.347 3.347 0 0 1-.307-.052c-.03 0-.105-.002-.227-.007a10.534 10.534 0 0 0-.418-.007l-.454-.015a10.909 10.909 0 0 0-.344-.007c-.103 0-.166.03-.19.088a.722.722 0 0 0-.037.263v2.615a.2.2 0 0 0 .044.125.178.178 0 0 0 .132.05Zm4.74 3.523c0-.113.048-.176.146-.19h.52a.975.975 0 0 0 .19-.03.242.242 0 0 0 .125-.073.188.188 0 0 0 .051-.14v-5.903a.16.16 0 0 0-.066-.131.215.215 0 0 0-.146-.059h-.66a.635.635 0 0 1-.087-.007 4.165 4.165 0 0 0-.118-.015.148.148 0 0 1-.066-.059.183.183 0 0 1-.022-.08c0-.093.06-.14.176-.14h1.802a50.229 50.229 0 0 1 .49-.037 3.986 3.986 0 0 1 .535-.03c.015.002.042.004.081.01.04 0 .08.002.124.006.044 0 .086.003.125.008h.088c.068.014.103.053.103.117a.298.298 0 0 1-.052.161c-.03.034-.075.051-.139.051h-.806c-.034 0-.06.02-.08.059a.571.571 0 0 0-.051.132c-.01.049-.017.1-.022.154v.139c0 .254.012.508.036.761.025.25.037.535.037.857v4.043c0 .035.007.076.022.125.02.044.051.066.095.066h2.344a.525.525 0 0 0 .373-.176 2.33 2.33 0 0 0 .323-.41c.102-.156.19-.31.263-.462.078-.156.142-.27.19-.344.03-.034.06-.051.089-.051.024 0 .046.022.066.066.019.068.029.13.029.183.005.049.007.122.007.22 0 .039-.007.097-.022.175a2.33 2.33 0 0 1-.044.235c-.014.083-.03.163-.044.242-.01.073-.014.131-.014.175v.103c0 .039-.003.08-.008.124a1 1 0 0 1-.007.125.186.186 0 0 1-.022.073.35.35 0 0 1-.183.066c-.61 0-1.262-.005-1.956-.015A97.791 97.791 0 0 0 50 19.963a10.26 10.26 0 0 0-.762.03l-.352.014a6.22 6.22 0 0 1-.278.008c-.103 0-.188-.005-.256-.015-.064-.015-.096-.061-.096-.14Zm9.396-3.523 1.253-.051c.195-.015.344-.061.447-.14a.77.77 0 0 0 .227-.292c.053-.118.092-.245.117-.381.03-.137.07-.271.124-.403.015-.059.04-.088.074-.088.068 0 .102.017.102.051v.293c0 .196-.01.408-.03.637a9.04 9.04 0 0 0-.021.579c0 .156.012.322.036.498.03.176.044.357.044.542a2.278 2.278 0 0 1-.03.286.637.637 0 0 1-.043.154c-.014.043-.036.065-.066.065-.053 0-.088-.024-.102-.073a3.855 3.855 0 0 0-.161-.608 11.703 11.703 0 0 0-.132-.373c-.044-.088-.13-.157-.257-.205a1.8 1.8 0 0 0-.432-.118 3.137 3.137 0 0 0-.49-.05 7.559 7.559 0 0 0-.44-.016h-.22c-.078 0-.127.018-.146.052-.02.03-.03.078-.03.146v2.571c0 .146.047.24.14.278h2.526a.55.55 0 0 0 .213-.036.336.336 0 0 0 .183-.125 1.696 1.696 0 0 0 .213-.344c.043-.078.087-.161.131-.249.05-.093.093-.178.132-.256.044-.078.076-.13.095-.154a.151.151 0 0 1 .147-.088c.044 0 .075.017.095.051v1.091a.51.51 0 0 1-.015.125 3.818 3.818 0 0 1-.021.132c-.02.068-.044.115-.074.139a.574.574 0 0 1-.168.059c-.493 0-.962-.003-1.407-.008l-1.34-.014c-.454 0-.932-.003-1.435-.008A174.43 174.43 0 0 0 55.206 20c-.083 0-.125-.041-.125-.125 0-.053.027-.095.081-.124a.568.568 0 0 1 .147-.059c.029 0 .075-.002.139-.007a3.08 3.08 0 0 1 .22-.007l.227-.015c.073-.005.136-.007.19-.007.117 0 .176-.093.176-.279v-5.405c0-.083-.01-.185-.03-.307a.785.785 0 0 0-.095-.308l-.051-.037-1.025-.102c-.093 0-.14-.047-.14-.14 0-.024.005-.053.015-.087.01-.04.042-.059.095-.059h1.201c.47 0 .93-.002 1.385-.007.454-.005.871-.008 1.252-.008h1.04c.078 0 .159.003.242.008.088 0 .17.002.249.007.078 0 .149.003.212.008h.147a.112.112 0 0 1 .08.05c.02.03.032.067.037.11a.51.51 0 0 1 .015.125.8.8 0 0 1 .007.095v1.194c0 .044-.017.066-.051.066-.054 0-.095-.034-.125-.103a1.594 1.594 0 0 0-.117-.256 2.484 2.484 0 0 0-.161-.322 4.384 4.384 0 0 1-.14-.25.433.433 0 0 0-.204-.19 1.09 1.09 0 0 0-.3-.11 2.668 2.668 0 0 0-.345-.065 3.345 3.345 0 0 1-.307-.052c-.03 0-.105-.002-.228-.007a10.529 10.529 0 0 0-.417-.007l-.454-.015a10.914 10.914 0 0 0-.344-.007c-.103 0-.166.03-.19.088a.722.722 0 0 0-.037.263v2.615a.2.2 0 0 0 .044.125.178.178 0 0 0 .131.05Zm6.065 3.545c0-.073.03-.125.088-.154a.83.83 0 0 1 .19-.08c.03 0 .073-.003.132-.008a27.982 27.982 0 0 1 .388-.03c.059-.004.1-.006.125-.006.097-.01.146-.057.146-.14v-5.75a.59.59 0 0 0-.007-.072.886.886 0 0 0-.007-.11l-.015-.117a.478.478 0 0 0-.015-.081.205.205 0 0 0-.007-.044c-.005-.02-.02-.034-.044-.044h-.073a.775.775 0 0 0-.11-.007h-.11a.608.608 0 0 0-.073-.008h-.279a4.999 4.999 0 0 0-.534.03 1.735 1.735 0 0 0-.242.029.655.655 0 0 0-.176.044.693.693 0 0 0-.256.212 6.418 6.418 0 0 0-.25.33 3.222 3.222 0 0 1-.233.3c-.074.088-.142.132-.206.132-.102 0-.153-.054-.153-.161v-.037l.16-.542c.06-.18.11-.363.154-.549.01-.044.02-.112.03-.205.014-.098.034-.195.058-.293a.928.928 0 0 1 .103-.264c.044-.078.102-.117.176-.117a.16.16 0 0 1 .139.073.626.626 0 0 1 .088.162c.03.058.06.117.095.175.034.054.08.088.14.103.194.02.356.031.483.036h.695c.508 0 1.004-.005 1.487-.014.484-.015.98-.022 1.487-.022h.38c.094 0 .152-.034.177-.103a.242.242 0 0 0 .029-.073.934.934 0 0 0 .037-.124 2.29 2.29 0 0 0 .036-.125.43.43 0 0 1 .037-.088.112.112 0 0 1 .08-.051.649.649 0 0 1 .088-.008.34.34 0 0 1 .088.008c.02.005.04.022.059.051.073.112.132.237.175.374.044.131.086.268.125.41.04.136.078.273.117.41a2.206 2.206 0 0 0 .337.696l.03.117a.464.464 0 0 1 .029.154c0 .03-.008.044-.022.044a.584.584 0 0 1-.315-.11 4.878 4.878 0 0 1-.33-.264 17.68 17.68 0 0 0-.322-.3 1.77 1.77 0 0 0-.278-.235.787.787 0 0 0-.235-.087 2.985 2.985 0 0 0-.33-.074 4.554 4.554 0 0 0-.585-.058h-.14c-.043 0-.09.002-.139.007a.637.637 0 0 0-.139.03.275.275 0 0 0-.11.065.158.158 0 0 0-.044.117v3.838c0 .225-.007.44-.022.645-.01.2-.014.386-.014.557v.241a77.596 77.596 0 0 1 .03.63c.009.098.019.171.028.22h.88a.34.34 0 0 1 .212.08.23.23 0 0 1 .102.198.41.41 0 0 1-.014.095c-.01.04-.03.059-.059.059h-3.45c-.053 0-.085-.007-.095-.022a.378.378 0 0 1-.007-.095Zm8.555-3.545 1.252-.051c.195-.015.344-.061.447-.14a.77.77 0 0 0 .227-.292 1.61 1.61 0 0 0 .117-.381c.03-.137.07-.271.124-.403.015-.059.04-.088.074-.088.068 0 .102.017.102.051v.293c0 .196-.01.408-.03.637a9.106 9.106 0 0 0-.021.579c0 .156.012.322.037.498.029.176.043.357.043.542a2.278 2.278 0 0 1-.03.286.637.637 0 0 1-.043.154c-.014.043-.036.065-.066.065-.053 0-.087-.024-.102-.073a3.668 3.668 0 0 0-.03-.146 1.848 1.848 0 0 0-.05-.213 11.703 11.703 0 0 0-.212-.622.449.449 0 0 0-.258-.205 1.798 1.798 0 0 0-.432-.118 3.139 3.139 0 0 0-.49-.05 7.562 7.562 0 0 0-.44-.016h-.22c-.078 0-.127.018-.146.052-.02.03-.03.078-.03.146v2.571c0 .146.047.24.14.278h2.526a.55.55 0 0 0 .213-.036.336.336 0 0 0 .183-.125 1.698 1.698 0 0 0 .213-.344c.044-.078.087-.161.131-.249.05-.093.093-.178.132-.256.044-.078.076-.13.096-.154a.151.151 0 0 1 .146-.088c.044 0 .076.017.095.051v1.091a.514.514 0 0 1-.014.125 3.622 3.622 0 0 1-.022.132c-.02.068-.044.115-.074.139a.575.575 0 0 1-.168.059c-.493 0-.962-.003-1.406-.008l-1.34-.014c-.455 0-.933-.003-1.436-.008A172.05 172.05 0 0 0 69.825 20c-.083 0-.124-.041-.124-.125 0-.053.027-.095.08-.124a.57.57 0 0 1 .147-.059c.029 0 .075-.002.139-.007.068-.005.142-.007.22-.007l.227-.015a2.9 2.9 0 0 1 .19-.007c.117 0 .176-.093.176-.279v-5.405c0-.083-.01-.185-.03-.307a.789.789 0 0 0-.095-.308l-.05-.037-1.026-.102c-.093 0-.14-.047-.14-.14 0-.024.005-.053.015-.087.01-.04.042-.059.095-.059h1.202c.468 0 .93-.002 1.384-.007.454-.005.871-.008 1.252-.008h1.04a4.1 4.1 0 0 1 .242.008c.088 0 .17.002.25.007.077 0 .148.003.212.008h.146a.112.112 0 0 1 .08.05c.02.03.032.067.037.11a.51.51 0 0 1 .015.125c.005.04.007.07.007.095v1.194c0 .044-.017.066-.051.066-.054 0-.095-.034-.125-.103a1.586 1.586 0 0 0-.117-.256 2.47 2.47 0 0 0-.161-.322 4.307 4.307 0 0 1-.14-.25.434.434 0 0 0-.204-.19 1.09 1.09 0 0 0-.3-.11 2.67 2.67 0 0 0-.345-.065 3.35 3.35 0 0 1-.307-.052c-.03 0-.105-.002-.227-.007a10.538 10.538 0 0 0-.418-.007l-.454-.015a10.909 10.909 0 0 0-.344-.007c-.103 0-.166.03-.19.088a.722.722 0 0 0-.037.263v2.615a.2.2 0 0 0 .044.125.179.179 0 0 0 .132.05Zm-52.808 5.39h-8.88L8.76 9.824h12.48l-1.776 11.904Zm-8.232-.696h7.56l1.704-10.512H9.504l1.728 10.512Zm1.488-1.512-.624-7.584-.264.024.624 7.584.264-.024Zm5.496-7.56-.264-.024-.648 7.584.264.024.648-7.584Zm2.712-4.272H16.8v-.816a.569.569 0 0 0-.576-.576H13.8a.584.584 0 0 0-.576.576v.816H9.072a.85.85 0 0 0-.84.84v.144c0 .312.264.576.576.576h12.384a.584.584 0 0 0 .576-.576v-.144a.85.85 0 0 0-.84-.84Zm-7.224-.6c0-.168.12-.288.288-.288h1.992c.168 0 .288.12.288.288v.6h-2.568v-.6Zm1.392 4.752h-.312v7.8h.312v-7.8Z"/>
</svg>
