<?xml version="1.0" encoding="UTF-8"?>
<svg width="700pt" height="700pt" version="1.1" viewBox="0 0 700 700" xmlns="http://www.w3.org/2000/svg">
 <path d="m524.34 441.95-107.45-107.43c32.371-36.699 43.211-87.648 28.586-134.35-14.629-46.703-52.594-82.363-100.12-94.043-47.523-11.676-97.695 2.3281-132.3 36.934s-48.609 84.777-36.934 132.3c11.68 47.527 47.34 85.492 94.043 100.12 46.703 14.625 97.652 3.7852 134.35-28.586l107.45 107.43zm-333.73-199.5c-0.003906-32.328 12.836-63.332 35.691-86.195s53.859-35.707 86.184-35.711c32.328-0.003906 63.332 12.836 86.195 35.695 22.859 22.855 35.703 53.859 35.707 86.188 0 32.328-12.84 63.332-35.699 86.191s-53.863 35.703-86.191 35.703c-32.305-0.035156-63.281-12.879-86.133-35.719-22.848-22.84-35.707-53.809-35.754-86.117z"/>
</svg>
