<svg xmlns="http://www.w3.org/2000/svg" width="41" height="29" fill="none" viewBox="0 0 41 29">
  <path fill="#fff" d="M.336 6.162A1.24 1.24 0 0 0 0 7.011c-.003.32.119.627.336.848L19.2 27.877c.211.228.5.356.8.356.3 0 .589-.128.8-.355L39.668 7.859c.224-.222.353-.531.358-.857a1.24 1.24 0 0 0-.331-.87 1.098 1.098 0 0 0-.82-.35 1.103 1.103 0 0 0-.807.38L20 25.33 1.937 6.16a1.096 1.096 0 0 0-.8-.353c-.3 0-.589.127-.8.354H.335Z"/>
  <path fill="#fff" d="M.336.855c-.213.225-.334.53-.336.85-.003.32.119.626.336.848L19.2 22.571c.212.227.5.355.8.355.301 0 .589-.127.8-.355L39.668 2.553c.224-.222.354-.532.359-.857a1.24 1.24 0 0 0-.332-.87 1.098 1.098 0 0 0-.82-.351 1.103 1.103 0 0 0-.807.38L20 20.025 1.937.855a1.096 1.096 0 0 0-.8-.353c-.3 0-.589.127-.8.353H.336Z"/>
</svg>
