<svg xmlns="http://www.w3.org/2000/svg" width="18" height="14" fill="none" viewBox="0 0 18 14">
  <path fill="#0078D4" d="M.151 3.557a.559.559 0 0 0 0 .764l8.483 9.002c.095.102.225.16.36.16a.491.491 0 0 0 .36-.16l8.485-9.002c.1-.1.159-.24.16-.386a.558.558 0 0 0-.148-.39.494.494 0 0 0-.368-.159.496.496 0 0 0-.364.171l-8.125 8.62-8.123-8.62A.493.493 0 0 0 .51 3.4a.493.493 0 0 0-.36.158Z"/>
  <path fill="#0078D4" d="M.151.171a.559.559 0 0 0 0 .764l8.483 9.002c.095.102.225.16.36.16a.491.491 0 0 0 .36-.16L17.839.935c.1-.1.159-.24.16-.386a.558.558 0 0 0-.148-.39.494.494 0 0 0-.368-.159.496.496 0 0 0-.364.171l-8.125 8.62L.871.172A.493.493 0 0 0 .51.012a.493.493 0 0 0-.36.16Z"/>
</svg>
