<svg xmlns="http://www.w3.org/2000/svg" width="41" height="29" fill="none" viewBox="0 0 41 29">
  <path fill="#fff" d="M39.69 22.546c.214-.225.335-.53.337-.85a1.199 1.199 0 0 0-.336-.848L20.826.83a1.092 1.092 0 0 0-.8-.355c-.3 0-.588.128-.8.355L.36 20.848a1.235 1.235 0 0 0-.359.857c-.005.326.115.64.332.87.217.23.512.357.819.351.307-.005.598-.143.808-.38l18.068-19.17 18.063 19.17c.212.226.5.353.8.353.3 0 .589-.127.8-.353Z"/>
  <path fill="#fff" d="M39.69 27.852c.214-.225.335-.53.337-.85a1.2 1.2 0 0 0-.336-.848L20.826 6.136a1.092 1.092 0 0 0-.8-.355c-.3 0-.588.128-.8.355L.36 26.154a1.235 1.235 0 0 0-.36.856c-.005.326.115.64.332.87.216.23.512.357.819.351.306-.005.598-.142.808-.38l18.067-19.17 18.064 19.17c.212.226.5.353.8.353.3 0 .588-.127.8-.353Z"/>
</svg>
