<svg xmlns="http://www.w3.org/2000/svg" width="40" height="40" fill="none" viewBox="0 0 40 40">
  <path fill="#000" fill-rule="evenodd" d="M19.733 40h.017-.017Zm.136 0h-.006.017-.01Zm-.196 0h.02-.02Zm.259 0h-.011.019-.008Zm-.316 0h.013-.013Zm.378 0h-.01.013-.003Zm.063-.002h-.005.017-.012Zm-.513 0h.017-.017Zm.575 0h-.01.02-.01Zm-.636 0h.021-.02Zm.698-.002h-.014.02-.006Zm-.755 0h.02-.02Zm-.07-.001h.016-.017Zm.887 0h-.002.017-.014Zm-.95-.002h.024-.024Zm1.013 0h-.01.024-.014Zm.062-.001h-.015.024-.01Zm-1.132 0h.024-.024Zm-.054-.002h.017-.031.014Zm1.248 0h-.016.031-.015Zm.062-.002h-.008.026-.018Zm-1.389 0h.026-.026Zm-.056-.003.027.001h-.015l-.012-.001Zm1.507 0-.015.001.027-.001h-.012Zm-1.563-.002h.027-.028Zm1.625 0h-.02.026-.006Zm-1.703-.004.029.001h-.029Zm1.765.001h-.007.029-.022Zm-1.82-.004.03.002h-.015l-.016-.002Zm1.882.001h-.014.03-.016Zm-1.938-.003.03.001h-.02l-.01-.002Zm2 0-.021.001.03-.002-.01.001Zm.062-.003-.028.001.025-.001.028-.002-.025.002Zm-2.112 0 .025.001-.028-.001-.025-.002.028.002Zm2.173-.004h-.012l.031-.001-.019.001Zm-2.256-.001.03.002h-.011l-.019-.002Zm-.055-.003.031.002-.02-.002h-.01Zm2.373 0-.02.002.032-.002h-.012Zm-2.425-.004.028.002-.026-.002-.026-.001.024.001Zm2.487 0-.026.002.028-.002.024-.001-.026.002Zm.061-.004-.009.001.03-.002-.02.001Zm-2.627-.001.029.002h-.01l-.02-.002Zm-.055-.004.029.002-.016-.001-.013-.001Zm2.744.001-.016.001.029-.002-.013.001Zm-2.798-.005.026.002-.02-.002h-.006Zm2.86 0-.021.002.026-.002h-.006ZM18.3 39.94l.023.002h-.006l-.017-.002Zm2.994.002h-.006l.023-.002-.017.002Zm.061-.005h-.01l.023-.001h-.013Zm-3.112-.001.024.002-.011-.001-.013-.001Zm-.054-.005.02.002-.015-.001h-.005Zm3.227 0-.014.002.02-.002h-.005Zm-3.288-.005h.006-.006Zm3.35 0h-.001.006-.005Zm.061-.005h-.005l.013-.001h-.008Zm-3.475-.001.013.001h-.005l-.008-.001Zm-.057-.005h.01-.01Zm3.593 0h-.006.01-.004Zm-4.819-.158C7.534 38.255.452 29.975.452 20c0-11.038 8.672-20 19.354-20C30.49 0 39.162 8.962 39.162 20c0 9.975-7.082 18.255-16.33 19.757V25.78h4.51L28.2 20h-5.37v-3.753c0-1.581.75-3.123 3.154-3.123h2.44V8.203s-2.215-.39-4.332-.39c-4.421 0-7.31 2.768-7.31 7.78V20h-4.915v5.781h4.914v13.976Z" clip-rule="evenodd"/>
</svg>
