<svg xmlns="http://www.w3.org/2000/svg" width="39" height="40" fill="none" viewBox="0 0 39 40">
  <path fill="#000" fill-rule="evenodd" d="M19.645 0C30.327 0 39 8.962 39 20s-8.673 20-19.355 20S.29 31.038.29 20 8.963 0 19.645 0Zm0 7.5c-3.285 0-3.697.014-4.987.075-1.288.06-2.167.272-2.937.581-.795.32-1.47.747-2.142 1.442a6.153 6.153 0 0 0-1.396 2.214c-.299.795-.503 1.704-.562 3.034-.059 1.334-.073 1.76-.073 5.154 0 3.395.014 3.82.073 5.154.059 1.33.263 2.239.562 3.034a6.16 6.16 0 0 0 1.396 2.214 5.912 5.912 0 0 0 2.142 1.442c.77.309 1.65.52 2.937.58 1.29.062 1.702.076 4.987.076s3.697-.014 4.988-.075c1.287-.06 2.166-.272 2.936-.581a5.913 5.913 0 0 0 2.143-1.442 6.154 6.154 0 0 0 1.395-2.214c.299-.795.503-1.704.562-3.034.059-1.334.073-1.76.073-5.154 0-3.395-.014-3.82-.073-5.154-.059-1.33-.263-2.239-.562-3.034a6.154 6.154 0 0 0-1.395-2.214 5.915 5.915 0 0 0-2.143-1.442c-.77-.309-1.649-.52-2.936-.58-1.29-.062-1.703-.076-4.988-.076Zm0 2.252c3.23 0 3.613.013 4.888.073 1.18.056 1.82.26 2.246.43.565.227.968.498 1.391.936.424.437.686.853.905 1.437.166.44.363 1.102.417 2.32.058 1.319.07 1.714.07 5.052 0 3.338-.012 3.733-.07 5.051-.054 1.219-.251 1.88-.417 2.321-.22.584-.481 1-.905 1.437a3.737 3.737 0 0 1-1.39.935c-.427.172-1.067.375-2.247.43-1.275.061-1.658.074-4.888.074s-3.613-.013-4.888-.073c-1.18-.056-1.82-.26-2.246-.43a3.739 3.739 0 0 1-1.391-.936 3.887 3.887 0 0 1-.905-1.437c-.166-.44-.363-1.102-.417-2.32-.058-1.319-.07-1.714-.07-5.052 0-3.338.012-3.733.07-5.051.054-1.219.251-1.88.417-2.321.22-.584.482-1 .905-1.437a3.74 3.74 0 0 1 1.39-.936c.427-.17 1.068-.374 2.247-.43 1.276-.06 1.658-.073 4.888-.073Zm0 3.83c-3.43 0-6.212 2.873-6.212 6.418s2.781 6.419 6.212 6.419c3.43 0 6.212-2.874 6.212-6.419 0-3.545-2.781-6.419-6.212-6.419Zm0 10.585c-2.227 0-4.032-1.866-4.032-4.167 0-2.301 1.805-4.167 4.032-4.167 2.227 0 4.032 1.866 4.032 4.167 0 2.301-1.805 4.167-4.032 4.167Zm7.91-10.84c0 .829-.65 1.5-1.453 1.5-.801 0-1.451-.671-1.451-1.5 0-.828.65-1.5 1.451-1.5.802 0 1.452.672 1.452 1.5Z" clip-rule="evenodd"/>
</svg>
