<svg xmlns="http://www.w3.org/2000/svg" width="39" height="40" fill="none" viewBox="0 0 39 40">
  <path fill="#000" d="M19.516 0C8.826 0 .16 8.955.16 20c0 8.473 5.102 15.716 12.302 18.63-.17-1.582-.322-4.016.067-5.743.352-1.56 2.27-9.941 2.27-9.941s-.58-1.198-.58-2.97c0-2.78 1.56-4.857 3.503-4.857 1.65 0 2.449 1.281 2.449 2.817 0 1.716-1.058 4.282-1.604 6.66-.455 1.99.967 3.613 2.867 3.613 3.44 0 6.084-3.748 6.084-9.158 0-4.788-3.33-8.137-8.085-8.137-5.507 0-8.74 4.269-8.74 8.68 0 1.719.641 3.562 1.441 4.564a.613.613 0 0 1 .134.573c-.147.632-.473 1.99-.537 2.269-.085.366-.28.444-.647.267-2.418-1.163-3.93-4.814-3.93-7.748 0-6.309 4.437-12.103 12.79-12.103 6.713 0 11.931 4.944 11.931 11.551 0 6.893-4.206 12.44-10.043 12.44-1.961 0-3.805-1.053-4.436-2.296 0 0-.97 3.818-1.206 4.754-.437 1.737-1.617 3.915-2.406 5.243 1.811.58 3.736.892 5.73.892 10.69 0 19.356-8.954 19.356-20 0-11.045-8.665-20-19.355-20Z"/>
</svg>
