<svg xmlns="http://www.w3.org/2000/svg" width="39" height="40" fill="none" viewBox="0 0 39 40">
  <path fill="#000" fill-rule="evenodd" d="M19.355 0C30.037 0 38.71 8.962 38.71 20s-8.673 20-19.355 20S0 31.038 0 20 8.673 0 19.355 0Zm-3.41 30.637c8.566 0 13.248-7.333 13.248-13.689 0-.21 0-.419-.01-.619a9.721 9.721 0 0 0 2.328-2.494c-.83.38-1.729.639-2.675.758a4.785 4.785 0 0 0 2.047-2.664 9.248 9.248 0 0 1-2.954 1.168 4.565 4.565 0 0 0-3.4-1.517c-2.568 0-4.653 2.155-4.653 4.81 0 .378.038.748.125 1.097-3.872-.2-7.3-2.115-9.598-5.029a4.95 4.95 0 0 0-.627 2.415c0 1.666.82 3.143 2.076 4a4.463 4.463 0 0 1-2.105-.598v.06c0 2.335 1.603 4.27 3.736 4.72a4.482 4.482 0 0 1-2.104.079c.589 1.916 2.307 3.303 4.345 3.343a9.169 9.169 0 0 1-6.895 1.985 12.673 12.673 0 0 0 7.117 2.175Z" clip-rule="evenodd"/>
</svg>
