<svg xmlns="http://www.w3.org/2000/svg" width="40" height="40" fill="none" viewBox="0 0 40 40">
  <path fill="#000" fill-rule="evenodd" d="M19.936 0C30.617 0 39.29 8.962 39.29 20s-8.672 20-19.354 20C9.253 40 .58 31.038.58 20S9.253 0 19.936 0Zm9.188 10.535c-2.317-2.397-5.399-3.717-8.681-3.718-6.765 0-12.27 5.686-12.273 12.676 0 2.234.565 4.415 1.638 6.338L8.068 32.4l6.505-1.763a11.956 11.956 0 0 0 5.864 1.543h.006c6.763 0 12.269-5.687 12.272-12.677 0-3.387-1.275-6.572-3.591-8.968Zm-8.681 19.504h-.005a9.938 9.938 0 0 1-5.191-1.469l-.373-.228-3.86 1.046 1.03-3.888-.242-.399a10.77 10.77 0 0 1-1.56-5.607c.003-5.81 4.578-10.536 10.205-10.536 2.724.001 5.285 1.098 7.21 3.09 1.927 1.992 2.987 4.639 2.985 7.454-.002 5.81-4.577 10.537-10.2 10.537Zm5.595-7.891c-.307-.159-1.815-.925-2.096-1.03-.28-.106-.485-.16-.69.158-.204.317-.792 1.03-.97 1.242-.18.211-.358.238-.665.079-.307-.159-1.295-.493-2.466-1.572-.911-.84-1.527-1.877-1.706-2.194-.179-.318-.019-.489.135-.647.138-.142.306-.37.46-.555.153-.185.204-.317.306-.528.102-.212.051-.397-.025-.555-.077-.159-.69-1.718-.946-2.352-.248-.618-.501-.534-.69-.544a11.87 11.87 0 0 0-.587-.011c-.205 0-.537.08-.818.396-.281.317-1.073 1.084-1.073 2.643 0 1.559 1.099 3.065 1.252 3.276.153.212 2.162 3.411 5.238 4.783a17.26 17.26 0 0 0 1.748.668c.735.24 1.403.207 1.932.125.589-.09 1.814-.766 2.07-1.506.255-.74.255-1.374.178-1.506-.076-.132-.28-.212-.587-.37Z" clip-rule="evenodd"/>
</svg>
