<svg xmlns="http://www.w3.org/2000/svg" width="40" height="40" fill="none" viewBox="0 0 40 40">
  <path fill="#000" fill-rule="evenodd" d="M20.226 0C30.908 0 39.58 8.962 39.58 20s-8.673 20-19.355 20S.87 31.038.87 20 9.544 0 20.226 0Zm11.591 13.983c-.278-1.076-1.098-1.923-2.139-2.21-1.887-.523-9.452-.523-9.452-.523s-7.566 0-9.453.523c-1.04.287-1.86 1.134-2.139 2.21C8.13 15.933 8.13 20 8.13 20s0 4.068.505 6.017c.279 1.076 1.099 1.923 2.14 2.21 1.886.523 9.452.523 9.452.523s7.565 0 9.452-.522c1.041-.288 1.86-1.135 2.14-2.21.505-1.95.505-6.018.505-6.018s0-4.068-.506-6.017Zm-14.01 9.767v-7.5L24.091 20l-6.286 3.75Z" clip-rule="evenodd"/>
</svg>
